<mxfile host="app.diagrams.net" modified="2023-06-04T15:11:03.973Z" agent="Mozilla/5.0 (Windows NT 10.0; Win64; x64) AppleWebKit/537.36 (KHTML, like Gecko) Chrome/113.0.0.0 Safari/537.36" etag="7YgGafuvbZWLYYa6PHes" version="21.3.7" type="device">
  <diagram name="Page-1" id="LrPKMPuMjz2fY_aMghrz">
    <mxGraphModel dx="1292" dy="581" grid="1" gridSize="10" guides="1" tooltips="1" connect="1" arrows="1" fold="1" page="1" pageScale="1" pageWidth="850" pageHeight="1100" math="0" shadow="0">
      <root>
        <mxCell id="0" />
        <mxCell id="1" parent="0" />
        <mxCell id="lbWo0yA8RlBKNHZ2sUyC-2" value="&lt;font style=&quot;font-size: 14px;&quot;&gt;Customer&lt;br&gt;&lt;/font&gt;" style="verticalAlign=top;align=left;spacingTop=8;spacingLeft=2;spacingRight=12;shape=cube;size=10;direction=south;fontStyle=4;html=1;whiteSpace=wrap;" vertex="1" parent="1">
          <mxGeometry x="50" y="80" width="150" height="120" as="geometry" />
        </mxCell>
        <mxCell id="lbWo0yA8RlBKNHZ2sUyC-3" value="&lt;font size=&quot;3&quot;&gt;Product&lt;/font&gt;" style="verticalAlign=top;align=left;spacingTop=8;spacingLeft=2;spacingRight=12;shape=cube;size=10;direction=south;fontStyle=4;html=1;whiteSpace=wrap;" vertex="1" parent="1">
          <mxGeometry x="480" y="140" width="140" height="120" as="geometry" />
        </mxCell>
        <mxCell id="lbWo0yA8RlBKNHZ2sUyC-4" value="&lt;font size=&quot;3&quot;&gt;Seller&lt;/font&gt;" style="verticalAlign=top;align=left;spacingTop=8;spacingLeft=2;spacingRight=12;shape=cube;size=10;direction=south;fontStyle=4;html=1;whiteSpace=wrap;" vertex="1" parent="1">
          <mxGeometry x="70" y="280" width="150" height="120" as="geometry" />
        </mxCell>
        <mxCell id="lbWo0yA8RlBKNHZ2sUyC-10" value="&lt;br&gt;&lt;b&gt;Order&lt;/b&gt;" style="html=1;whiteSpace=wrap;" vertex="1" parent="1">
          <mxGeometry x="660" y="60" width="110" height="50" as="geometry" />
        </mxCell>
        <mxCell id="lbWo0yA8RlBKNHZ2sUyC-11" value="&lt;br&gt;&lt;b&gt;Category&lt;/b&gt;" style="html=1;whiteSpace=wrap;" vertex="1" parent="1">
          <mxGeometry x="520" y="20" width="110" height="50" as="geometry" />
        </mxCell>
        <mxCell id="lbWo0yA8RlBKNHZ2sUyC-12" value="&lt;br&gt;&lt;b&gt;Shoppingcard&lt;/b&gt;" style="html=1;whiteSpace=wrap;" vertex="1" parent="1">
          <mxGeometry x="370" y="30" width="110" height="50" as="geometry" />
        </mxCell>
        <mxCell id="lbWo0yA8RlBKNHZ2sUyC-15" value="" style="endArrow=open;html=1;rounded=0;align=center;verticalAlign=bottom;dashed=1;endFill=0;labelBackgroundColor=none;" edge="1" parent="1" source="lbWo0yA8RlBKNHZ2sUyC-3" target="lbWo0yA8RlBKNHZ2sUyC-11">
          <mxGeometry relative="1" as="geometry">
            <mxPoint x="500" y="100" as="sourcePoint" />
            <mxPoint x="660" y="100" as="targetPoint" />
          </mxGeometry>
        </mxCell>
        <mxCell id="lbWo0yA8RlBKNHZ2sUyC-16" value="" style="resizable=0;html=1;align=center;verticalAlign=top;labelBackgroundColor=none;" connectable="0" vertex="1" parent="lbWo0yA8RlBKNHZ2sUyC-15">
          <mxGeometry relative="1" as="geometry" />
        </mxCell>
        <mxCell id="lbWo0yA8RlBKNHZ2sUyC-18" value="" style="endArrow=open;startArrow=none;endFill=0;startFill=0;endSize=8;html=1;verticalAlign=bottom;dashed=1;labelBackgroundColor=none;rounded=0;entryX=0;entryY=0.75;entryDx=0;entryDy=0;" edge="1" parent="1" target="lbWo0yA8RlBKNHZ2sUyC-10">
          <mxGeometry x="-0.0667" y="18" width="160" relative="1" as="geometry">
            <mxPoint x="600" y="140" as="sourcePoint" />
            <mxPoint x="660" y="120" as="targetPoint" />
            <mxPoint as="offset" />
          </mxGeometry>
        </mxCell>
        <mxCell id="lbWo0yA8RlBKNHZ2sUyC-19" value="" style="endArrow=open;startArrow=none;endFill=0;startFill=0;endSize=8;html=1;verticalAlign=bottom;dashed=1;labelBackgroundColor=none;rounded=0;exitX=0;exitY=0;exitDx=10;exitDy=140;exitPerimeter=0;" edge="1" parent="1" source="lbWo0yA8RlBKNHZ2sUyC-3" target="lbWo0yA8RlBKNHZ2sUyC-12">
          <mxGeometry width="160" relative="1" as="geometry">
            <mxPoint x="330" y="110" as="sourcePoint" />
            <mxPoint x="490" y="110" as="targetPoint" />
          </mxGeometry>
        </mxCell>
        <mxCell id="lbWo0yA8RlBKNHZ2sUyC-20" value="&lt;b&gt;Transaction&lt;/b&gt;" style="html=1;whiteSpace=wrap;" vertex="1" parent="1">
          <mxGeometry x="780" y="360" width="110" height="50" as="geometry" />
        </mxCell>
        <mxCell id="lbWo0yA8RlBKNHZ2sUyC-23" value="" style="html=1;verticalAlign=bottom;labelBackgroundColor=none;endArrow=block;endFill=1;dashed=1;rounded=0;entryX=0.375;entryY=0.998;entryDx=0;entryDy=0;entryPerimeter=0;" edge="1" parent="1" target="lbWo0yA8RlBKNHZ2sUyC-24">
          <mxGeometry width="160" relative="1" as="geometry">
            <mxPoint x="620" y="224" as="sourcePoint" />
            <mxPoint x="690" y="210" as="targetPoint" />
          </mxGeometry>
        </mxCell>
        <mxCell id="lbWo0yA8RlBKNHZ2sUyC-24" value="&lt;font size=&quot;3&quot;&gt;Payment&lt;br&gt;&lt;br&gt;&lt;/font&gt;" style="verticalAlign=top;align=left;spacingTop=8;spacingLeft=2;spacingRight=12;shape=cube;size=10;direction=south;fontStyle=4;html=1;whiteSpace=wrap;" vertex="1" parent="1">
          <mxGeometry x="730" y="180" width="180" height="120" as="geometry" />
        </mxCell>
        <mxCell id="lbWo0yA8RlBKNHZ2sUyC-30" value="Shipping&lt;br&gt;" style="html=1;whiteSpace=wrap;" vertex="1" parent="1">
          <mxGeometry x="495" y="350" width="110" height="50" as="geometry" />
        </mxCell>
        <mxCell id="lbWo0yA8RlBKNHZ2sUyC-32" value="" style="html=1;verticalAlign=bottom;labelBackgroundColor=none;endArrow=open;endFill=0;dashed=1;rounded=0;entryX=1.022;entryY=0.42;entryDx=0;entryDy=0;entryPerimeter=0;exitX=0.5;exitY=0;exitDx=0;exitDy=0;" edge="1" parent="1" source="lbWo0yA8RlBKNHZ2sUyC-20" target="lbWo0yA8RlBKNHZ2sUyC-24">
          <mxGeometry width="160" relative="1" as="geometry">
            <mxPoint x="700" y="339.5" as="sourcePoint" />
            <mxPoint x="860" y="339.5" as="targetPoint" />
          </mxGeometry>
        </mxCell>
        <mxCell id="lbWo0yA8RlBKNHZ2sUyC-34" value="" style="html=1;verticalAlign=bottom;labelBackgroundColor=none;endArrow=block;endFill=1;dashed=1;rounded=0;entryX=0;entryY=0;entryDx=120;entryDy=75;entryPerimeter=0;" edge="1" parent="1" target="lbWo0yA8RlBKNHZ2sUyC-3">
          <mxGeometry width="160" relative="1" as="geometry">
            <mxPoint x="545" y="340" as="sourcePoint" />
            <mxPoint x="650" y="370" as="targetPoint" />
          </mxGeometry>
        </mxCell>
        <mxCell id="lbWo0yA8RlBKNHZ2sUyC-35" value="" style="html=1;verticalAlign=bottom;labelBackgroundColor=none;endArrow=block;endFill=1;dashed=1;rounded=0;entryX=0.288;entryY=1.017;entryDx=0;entryDy=0;entryPerimeter=0;" edge="1" parent="1" target="lbWo0yA8RlBKNHZ2sUyC-3">
          <mxGeometry width="160" relative="1" as="geometry">
            <mxPoint x="200" y="170" as="sourcePoint" />
            <mxPoint x="360" y="170" as="targetPoint" />
          </mxGeometry>
        </mxCell>
        <mxCell id="lbWo0yA8RlBKNHZ2sUyC-36" value="" style="html=1;verticalAlign=bottom;labelBackgroundColor=none;endArrow=block;endFill=1;dashed=1;rounded=0;entryX=0.755;entryY=0.989;entryDx=0;entryDy=0;entryPerimeter=0;" edge="1" parent="1" target="lbWo0yA8RlBKNHZ2sUyC-3">
          <mxGeometry width="160" relative="1" as="geometry">
            <mxPoint x="220" y="300" as="sourcePoint" />
            <mxPoint x="380" y="300" as="targetPoint" />
          </mxGeometry>
        </mxCell>
      </root>
    </mxGraphModel>
  </diagram>
</mxfile>
